Coordinates
version=1
nRows=23
nColumns=27
inDegrees=yes

Units are S.I. units (second, meters, Newtons, ...)
If the header above contains a line with 'inDegrees', this indicates whether rotational values are in degrees (yes) or radians (no).

endheader
time	pelvis_rotation	pelvis_tilt	pelvis_list	pelvis_tx	pelvis_ty	pelvis_tz	hip_flexion_r	hip_adduction_r	hip_rotation_r	knee_angle_r	knee_rotation_r	knee_adduction_r	knee_angle_r_beta	ankle_angle_r	subtalar_angle_r	mtp_angle_r	hip_flexion_l	hip_adduction_l	hip_rotation_l	knee_angle_l	knee_rotation_l	knee_adduction_l	knee_angle_l_beta	ankle_angle_l	subtalar_angle_l	mtp_angle_l
      4.26000000	     11.68247168	    -36.64808822	      6.49023352	     -0.07571282	      0.56859213	     -1.17670168	    117.92894967	    -43.35989027	     14.86969035	     93.22756520	      0.00000000	      9.44876754	      1.62712797	     11.61172357	      0.00000000	      0.00000000	    112.07178052	    -19.83824324	     10.16417488	     85.58089370	      0.00000000	     -9.78603534	      1.49366837	      7.98152424	      0.00000000	      0.00000000
      4.26500000	     12.26740774	    -36.70717442	      6.56083966	     -0.07594867	      0.56962460	     -1.17719976	    117.87625790	    -44.12231766	     14.61364775	     93.05877592	      0.00000000	      9.69336512	      1.62418204	     11.65379535	      0.00000000	      0.00000000	    112.08598177	    -19.13152231	     10.24200153	     85.40376825	      0.00000000	     -9.88386236	      1.49057695	      7.97619275	      0.00000000	      0.00000000
      4.27000000	     12.28681074	    -36.74014340	      6.58211605	     -0.07639412	      0.57082965	     -1.17744431	    117.73012591	    -44.13875073	     14.46393635	     92.83388405	      0.00000000	      9.68644901	      1.62025693	     11.57404439	      0.00000000	      0.00000000	    111.95023931	    -19.03392937	     10.17439723	     85.20264517	      0.00000000	     -9.88266194	      1.48706669	      7.92303167	      0.00000000	      0.00000000
      4.27500000	     12.24951338	    -36.77883827	      6.57602907	     -0.07687768	      0.57203826	     -1.17766018	    117.56260590	    -44.09283022	     14.29356031	     92.60361334	      0.00000000	      9.67901609	      1.61623795	     11.49359220	      0.00000000	      0.00000000	    111.82366213	    -18.99671359	     10.12034198	     85.00681232	      0.00000000	     -9.88122538	      1.48364876	      7.89570269	      0.00000000	      0.00000000
      4.28000000	     11.54218964	    -36.70911707	      6.53949918	     -0.07758156	      0.57337957	     -1.17757604	    117.25006818	    -43.16544231	     14.31182272	     92.31519779	      0.00000000	      9.39734388	      1.61120415	     11.35055759	      0.00000000	      0.00000000	    111.43387002	    -19.70688276	      9.83402534	     84.77778121	      0.00000000	     -9.77557010	      1.47965141	      7.81937640	      0.00000000	      0.00000000
      4.28500000	     12.26535568	    -36.80341274	      6.61966608	     -0.07775301	      0.57440240	     -1.17809812	    117.23367364	    -44.09072984	     14.00714900	     92.16171928	      0.00000000	      9.66747728	      1.60852545	     11.33606001	      0.00000000	      0.00000000	    111.51153248	    -18.85016107	      9.96797771	     84.60040590	      0.00000000	     -9.87804912	      1.47655563	      7.78950652	      0.00000000	      0.00000000
      4.29000000	     12.20638031	    -36.79448512	      6.61683981	     -0.07819926	      0.57555065	     -1.17825980	    117.02352148	    -44.01925543	     13.85464002	     91.93763945	      0.00000000	      9.65826211	      1.60461451	     11.27244915	      0.00000000	      0.00000000	    111.33554444	    -18.85031086	      9.88831132	     84.40459586	      0.00000000	     -9.87690827	      1.47313810	      7.73373688	      0.00000000	      0.00000000
      4.29500000	     12.22245164	    -36.83504672	      6.62104100	     -0.07863234	      0.57668097	     -1.17844413	    116.87431643	    -44.02119942	     13.69596920	     91.72694607	      0.00000000	      9.65105962	      1.60093722	     11.20410000	      0.00000000	      0.00000000	    111.22490165	    -18.76316996	      9.84683838	     84.21222152	      0.00000000	     -9.87542504	      1.46978054	      7.70206616	      0.00000000	      0.00000000
      4.30000000	     11.44977677	    -36.74687616	      6.56293659	     -0.07932643	      0.57795690	     -1.17826568	    116.54857919	    -43.01622855	     13.73753093	     91.44810666	      0.00000000	      9.34478238	      1.59607056	     11.09596062	      0.00000000	      0.00000000	    110.81250119	    -19.54365940	      9.55471673	     83.98746994	      0.00000000	     -9.76546891	      1.46585788	      7.64359987	      0.00000000	      0.00000000
      4.30500000	     12.06931218	    -36.85596192	      6.68008837	     -0.07950042	      0.57890162	     -1.17870235	    116.58444384	    -43.77057715	     13.51700602	     91.31023791	      0.00000000	      9.63319071	      1.59366429	     11.04389459	      0.00000000	      0.00000000	    110.88797794	    -18.84707355	      9.60805165	     83.82810381	      0.00000000	     -9.87304424	      1.46307642	      7.61297790	      0.00000000	      0.00000000
      4.31000000	     12.23879435	    -36.82756283	      6.64325753	     -0.07982416	      0.57995755	     -1.17889128	    116.31826358	    -44.00190567	     13.25409651	     91.11281959	      0.00000000	      9.62934079	      1.59021869	     11.02917759	      0.00000000	      0.00000000	    110.76267221	    -18.57506863	      9.66790635	     83.63371532	      0.00000000	     -9.87124046	      1.45968370	      7.55405412	      0.00000000	      0.00000000
      4.31500000	     12.22590094	    -36.79109865	      6.60476644	     -0.08018567	      0.58108278	     -1.17894846	    116.02099162	    -43.98298635	     13.03794396	     90.90016060	      0.00000000	      9.61674465	      1.58650709	     11.03732976	      0.00000000	      0.00000000	    110.60113414	    -18.54066554	      9.62328457	     83.43894546	      0.00000000	     -9.87081623	      1.45628432	      7.40823275	      0.00000000	      0.00000000
      4.32000000	     12.25924179	    -36.80462494	      6.66327616	     -0.08055428	      0.58203653	     -1.17910435	    115.94090957	    -43.98348131	     12.98539270	     90.72427567	      0.00000000	      9.61564037	      1.58343732	     10.92861670	      0.00000000	      0.00000000	    110.44689465	    -18.45760677	      9.54876433	     83.25455732	      0.00000000	     -9.86893285	      1.45306614	      7.44637030	      0.00000000	      0.00000000
      4.32500000	     12.26835076	    -36.82906864	      6.67276671	     -0.08092066	      0.58300382	     -1.17917962	    115.80573719	    -43.95803883	     12.86936224	     90.54962120	      0.00000000	      9.60476844	      1.58038903	     10.87302639	      0.00000000	      0.00000000	    110.33553861	    -18.40341456	      9.50258513	     83.07731371	      0.00000000	     -9.86763805	      1.44997266	      7.41916273	      0.00000000	      0.00000000
      4.33000000	     11.57911097	    -36.68504840	      6.64781356	     -0.08149415	      0.58416394	     -1.17896625	    115.47996941	    -43.04094292	     12.97923463	     90.29361862	      0.00000000	      9.27991907	      1.57592094	     10.72734748	      0.00000000	      0.00000000	    109.87563627	    -19.11354802	      9.18607653	     82.85781413	      0.00000000	     -9.75170543	      1.44614167	      7.34997346	      0.00000000	      0.00000000
      4.33500000	     12.19844678	    -36.76818646	      6.70938427	     -0.08157271	      0.58495129	     -1.17931104	    115.43702811	    -43.81788186	     12.68017558	     90.18538237	      0.00000000	      9.58905505	      1.57403186	     10.76308676	      0.00000000	      0.00000000	    109.97042656	    -18.40991918	      9.32201126	     82.71915752	      0.00000000	     -9.86526179	      1.44372165	      7.31811088	      0.00000000	      0.00000000
      4.34000000	     12.35798601	    -36.70865336	      6.69541449	     -0.08178165	      0.58588450	     -1.17943517	    115.17800357	    -44.02661362	     12.46752418	     90.01384744	      0.00000000	      9.58819448	      1.57103801	     10.72451804	      0.00000000	      0.00000000	    109.81496336	    -18.17740315	      9.35093848	     82.54214891	      0.00000000	     -9.86379916	      1.44063227	      7.26506900	      0.00000000	      0.00000000
      4.34500000	     12.36130231	    -36.67530596	      6.70362981	     -0.08206141	      0.58681540	     -1.17947142	    114.97942661	    -44.00211896	     12.35422153	     89.84150398	      0.00000000	      9.58450647	      1.56803005	     10.69371996	      0.00000000	      0.00000000	    109.64519448	    -18.13803056	      9.29770595	     82.36535394	      0.00000000	     -9.86299414	      1.43754662	      7.21397391	      0.00000000	      0.00000000
      4.35000000	     12.40500294	    -36.65609397	      6.70569152	     -0.08228059	      0.58770090	     -1.17955405	    114.79469820	    -44.04376472	     12.21942525	     89.68190326	      0.00000000	      9.57259600	      1.56524449	     10.63876663	      0.00000000	      0.00000000	    109.50929603	    -18.04858006	      9.26495156	     82.20360611	      0.00000000	     -9.86153560	      1.43472358	      7.17522837	      0.00000000	      0.00000000
      4.35500000	     11.63155092	    -36.54447383	      6.64897441	     -0.08280309	      0.58871615	     -1.17924360	    114.50820670	    -43.01441519	     12.36281543	     89.45938871	      0.00000000	      9.22425495	      1.56136088	     10.50799574	      0.00000000	      0.00000000	    109.09423781	    -18.84938804	      8.96107788	     82.02144740	      0.00000000	     -9.74197272	      1.43154431	      7.16183660	      0.00000000	      0.00000000
      4.36000000	     12.47387738	    -36.60515929	      6.74059437	     -0.08270308	      0.58941364	     -1.17963491	    114.45382437	    -44.06857821	     12.01701129	     89.38145506	      0.00000000	      9.55977974	      1.56000068	     10.57772597	      0.00000000	      0.00000000	    109.20825239	    -17.91347914	      9.16692922	     81.87868495	      0.00000000	     -9.85940540	      1.42905264	      7.09099107	      0.00000000	      0.00000000
      4.36500000	     11.65020657	    -36.50345357	      6.66734765	     -0.08322140	      0.59042233	     -1.17928570	    114.16354577	    -42.96986309	     12.17609025	     89.15478157	      0.00000000	      9.19765937	      1.55604448	     10.44793153	      0.00000000	      0.00000000	    108.80721711	    -18.77365262	      8.85458987	     81.69475585	      0.00000000	     -9.73792715	      1.42584247	      7.01711087	      0.00000000	      0.00000000
      4.37000000	     12.53456814	    -36.56286876	      6.77749987	     -0.08306127	      0.59104480	     -1.17970476	    114.13290933	    -44.07136812	     11.84058929	     89.09780287	      0.00000000	      9.54081239	      1.55505002	     10.51687472	      0.00000000	      0.00000000	    108.92481678	    -17.79192556	      9.07365215	     81.57086339	      0.00000000	     -9.85727052	      1.42368014	      7.03667669	      0.00000000	      0.00000000
